<svg height="512" width="512" xmlns="http://www.w3.org/2000/svg"><path d="M256 0c56.295 0 108.334 18.185 150.596 48.981L12.385 334.823C4.356 309.99 0 283.506 0 256 0 114.615 114.615 0 256 0z" fill="#32cdff"/><path d="M105.526 48.893L256 512C114.615 512 0 397.385 0 256 0 170.856 41.578 95.435 105.526 48.893z" fill="#00a0ff"/><path d="M499.519 335.121C466.187 437.778 369.769 512 256 512S45.813 437.778 12.481 335.121z" fill="#64f0ff"/><path d="M256 335.121V512c113.77 0 210.187-74.222 243.519-176.879z" fill="#32cdff"/><path d="M406.474 48.893L256 512c141.385 0 256-114.615 256-256 0-85.144-41.578-160.565-105.526-207.107z" fill="#00a0ff"/><path d="M256 0v158.178l243.615 176.645C507.644 309.99 512 283.506 512 256 512 114.615 397.385 0 256 0z" fill="#3c73cd"/><path d="M256 0c56.295 0 108.334 18.185 150.596 48.981L256 158.178z" fill="#00a0ff"/></svg>